<svg width="18" height="26" viewBox="0 0 18 26" fill="none" xmlns="http://www.w3.org/2000/svg">
<path d="M15.2 15.9V10.7L17 8.79999C17.2 8.59999 17.3 8.39999 17.4 8.19999C17.5 7.89999 17.4 7.59999 17.2 7.29999C17 6.99999 16.8 6.79999 16.4 6.79999C16 6.69999 15.6 6.79999 15.3 7.09999L13.6 8.89999L14.9 4.39999C15 3.99999 15.1 3.79999 15 3.49999C14.9 3.09999 14.7 2.79999 14.3 2.59999C13.9 2.39999 13.6 2.39999 13.2 2.39999C12.7 2.49999 12.3 2.89999 12.2 3.39999V3.49999L10.7 8.89999V2.49999C10.7 2.19999 10.7 1.89999 10.5 1.69999C10.1 0.999991 9.3 0.799991 8.6 1.19999C8.2 1.39999 7.9 1.89999 7.9 2.39999V2.49999V5.29999H9.3H7.9V5.89999H9.3H7.9V7.79999L5.9 4.29999C5.9 4.29999 5.9 4.29999 5.9 4.19999V4.09999C5.6 3.69999 5.2 3.39999 4.7 3.39999C3.8 3.59999 3.2 4.19999 3.2 4.99999C3.2 5.29999 3.3 5.49999 3.4 5.79999V5.89999L5.2 9.09999V10.1H6.4C6.4 10.1 6.5 10.1 6.5 10.2C6.5 10.2 6.5 10.3 6.4 10.3L2.4 10.4C2.1 10.4 1.8 10.5 1.5 10.6C1.1 10.8 0.900003 11.2 0.800003 11.6C0.700003 12 0.800003 12.5 1 12.8C1.3 13.3 1.8 13.6 2.4 13.6L5.3 13.5V13.6V15.9H15.2ZM7.5 9.99999C7.8 10.1 8.1 10.2 8.3 10.3C9 10.7 9.4 11.5 9.4 12.2C9.4 12.5 9.3 12.8 9.1 13.1C9.1 13.1 9.1 13.1 9 13.1C9 13.1 9 13.1 9 13C9.5 12.1 9.2 10.9 8.2 10.3C8.1 10.3 7.8 10.2 7.5 9.99999C7.5 10.1 7.5 10.1 7.5 9.99999Z" fill="#CAEFFF"/>
<path d="M9.89999 25.8C11.8 25.8 13.6 25.4 15.3 24.8V16H5.29999V25C6.69999 25.5 8.29999 25.8 9.89999 25.8Z" fill="white"/>
<path d="M1.19998 13.3L1.09998 13.2C1.09998 13.3 1.19998 13.3 1.19998 13.3Z" fill="black"/>
<path d="M17.2 8.79999C17.4 8.59999 17.5 8.39999 17.6 8.09999C17.6 7.99999 17.6 7.89999 17.6 7.79999C17.6 7.19999 17.2 6.59999 16.5 6.49999C16.1 6.39999 15.6 6.49999 15.3 6.79999L14 8.19999L15.1 4.39999C15.2 4.09999 15.2 3.79999 15.1 3.49999C15 3.09999 14.7 2.69999 14.4 2.49999C14 2.29999 13.6 2.19999 13.2 2.29999C12.7 2.39999 12.3 2.79999 12.1 3.29999L10.9 7.59999V2.49999C10.9 2.19999 10.9 1.89999 10.7 1.59999C10.3 0.799988 9.30002 0.599988 8.50002 0.999988C8.00002 1.29999 7.70002 1.69999 7.70002 2.19999V7.19999L6.00002 4.19999C6.00002 4.19999 6.00002 4.19999 6.00002 4.09999L5.90002 3.99999C5.60002 3.59999 5.10002 3.29999 4.60002 3.29999C3.70002 3.39999 3.00002 4.19999 3.00002 4.99999C3.00002 5.29999 3.10002 5.49999 3.20002 5.79999L5.10002 9.09999V10.1L2.40002 10.2H5.20002V9.19999L3.30002 5.79999C3.20002 5.59999 3.10002 5.29999 3.10002 4.99999C3.10002 4.19999 3.80002 3.49999 4.60002 3.49999C5.10002 3.49999 5.60002 3.79999 5.90002 4.19999C5.90002 4.19999 5.90002 4.19999 5.90002 4.29999L7.80002 7.59999V5.99999V5.39999V2.59999V2.49999C7.80002 1.99999 8.10002 1.49999 8.60002 1.29999C9.30002 0.899988 10.2 1.09999 10.6 1.89999C10.7 2.19999 10.8 2.49999 10.8 2.69999V8.49999L12.2 3.59999C12.3 3.09999 12.7 2.69999 13.3 2.59999C14.1 2.39999 14.9 2.89999 15.1 3.69999C15.2 3.99999 15.2 4.29999 15.1 4.59999L13.9 8.69999L15.4 7.09999C15.7 6.79999 16.2 6.59999 16.6 6.69999C17.3 6.89999 17.7 7.59999 17.6 8.29999C17.4 8.39999 17.3 8.59999 17.2 8.79999L15.3 10.7V15.9V24.8V10.8L17.2 8.79999Z" fill="black"/>
<path d="M1.60002 13.6C1.50002 13.6 1.50002 13.6 1.40002 13.5C1.50002 13.5 1.60002 13.5 1.60002 13.6Z" fill="black"/>
<path d="M5.1 15.9V13.7H5V25V15.9H5.1Z" fill="black"/>
<path d="M2.40002 13.6L5.20002 13.5C5.20002 13.5 5.30002 13.5 5.30002 13.6V13.5L2.40002 13.6Z" fill="black"/>
<path d="M2.4 10.3C2.1 10.3 1.8 10.4 1.5 10.5C1.8 10.4 2.1 10.3 2.4 10.3Z" fill="black"/>
<path d="M5.29998 9.00001L3.39997 5.90001V5.80001C3.19997 5.60001 3.19998 5.30001 3.19998 5.00001C3.19998 4.20001 3.79998 3.60001 4.59998 3.60001C5.09998 3.60001 5.49998 3.80001 5.79998 4.30001V4.40001C5.79998 4.40001 5.79998 4.40001 5.79998 4.50001L7.79998 8.00001V6.10001H7.69998V7.70001L5.79998 4.40001C5.79998 4.40001 5.79998 4.40001 5.79998 4.30001C5.49998 3.90001 5.09998 3.60001 4.49998 3.60001C3.79998 3.50001 3.09998 4.20001 3.09998 5.00001C3.09998 5.30001 3.19998 5.60001 3.29998 5.80001L5.29998 9.00001L5.19998 10H5.29998V9.00001Z" fill="black"/>
<path d="M5.30001 13.6C5.30001 13.6 5.20001 13.7 5.30001 13.6L5.20001 15.9H5.30001V13.6Z" fill="black"/>
<path d="M7.89999 2.39999C7.89999 1.79999 8.19999 1.39999 8.59999 1.09999C9.29999 0.699992 10.1 0.999991 10.5 1.59999C10.6 1.79999 10.7 2.09999 10.7 2.39999V8.79999L12.2 3.39999V3.29999C12.3 2.79999 12.7 2.49999 13.2 2.29999C13.6 2.19999 13.9 2.29999 14.3 2.49999C14.7 2.69999 14.9 2.99999 15 3.39999C15.1 3.69999 15.1 3.99999 15 4.19999L13.7 8.69999L15.4 6.89999C15.7 6.59999 16.1 6.49999 16.5 6.59999C16.8 6.69999 17.1 6.89999 17.3 7.09999C17.5 7.39999 17.5 7.69999 17.5 7.99999C17.4 8.19999 17.3 8.39999 17.1 8.59999L15.3 10.5V15.7H15.4V10.5L17.2 8.59999C17.4 8.39999 17.5 8.19999 17.6 7.99999C17.8 7.29999 17.3 6.59999 16.6 6.39999C16.1 6.29999 15.7 6.39999 15.4 6.79999L13.9 8.39999L15 4.29999C15.1 3.99999 15.1 3.69999 15 3.39999C14.8 2.59999 14 2.09999 13.2 2.29999C12.7 2.39999 12.3 2.79999 12.1 3.29999L10.7 8.19999V2.39999C10.7 2.09999 10.7 1.79999 10.5 1.59999C10.1 0.899992 9.19999 0.599992 8.49999 0.999992C8.09999 1.29999 7.79999 1.79999 7.89999 2.39999C7.79999 2.39999 7.79999 2.39999 7.89999 2.39999L7.79999 5.19999H7.89999V2.39999Z" fill="black"/>
<path d="M7.89999 5.29999H7.79999V5.89999H7.89999V5.29999Z" fill="black"/>
<path d="M15.3 24.7C15.3 24.7 15.4 24.7 15.3 24.7V15.8V24.7Z" fill="black"/>
<path d="M9.29999 5.89999H7.79999V5.99999L9.29999 5.89999C9.29999 5.99999 9.29999 5.89999 9.29999 5.89999Z" fill="black"/>
<path d="M7.89999 5.99999V5.89999H7.79999V5.99999H7.89999Z" fill="black"/>
<path d="M9.30002 5.30001C9.30002 5.20001 9.30002 5.20001 9.30002 5.30001H7.90002V5.40001L9.30002 5.30001Z" fill="black"/>
<path d="M7.89999 5.20001H7.79999V5.30001H7.89999V5.20001Z" fill="black"/>
<path d="M8.30002 10.4C9.30002 11 9.70003 12.2 9.10003 13.1C9.10003 13.1 9.10003 13.1 9.10003 13.2C9.10003 13.2 9.10002 13.2 9.20002 13.2C9.40002 12.9 9.50002 12.6 9.50002 12.3C9.50002 11.5 9.10002 10.8 8.30002 10.4C8.10002 10.2 7.80002 10.1 7.50002 10C7.50002 10 7.50002 10 7.40002 10C7.40002 10 7.40002 10 7.40002 10.1C7.80002 10.2 8.10002 10.3 8.30002 10.4Z" fill="black"/>
<path d="M1.89998 13.7C1.79998 13.7 1.69998 13.6 1.59998 13.6C1.69998 13.6 1.79998 13.7 1.89998 13.7Z" fill="black"/>
<path d="M1.40001 13.5C1.30001 13.4 1.20001 13.4 1.20001 13.3C1.30001 13.4 1.40001 13.5 1.40001 13.5Z" fill="black"/>
<path d="M2.39998 13.7C2.29998 13.7 2.19998 13.7 2.09998 13.7C2.09998 13.7 2.19998 13.7 2.39998 13.7L5.09998 13.6L2.39998 13.7Z" fill="black"/>
<path d="M1.09999 13.2C0.999988 13.1 0.899988 13 0.799988 12.9C0.899988 13 0.999988 13.1 1.09999 13.2Z" fill="black"/>
<path d="M6.50002 10.1C6.50002 10.1 6.50002 10 6.50002 10.1L5.20002 10V10.1L2.40002 10.2L6.50002 10.1C6.50002 10.2 6.50002 10.2 6.50002 10.1Z" fill="black"/>
<path d="M5.19999 13.6L2.49999 13.7H2.39999C1.79999 13.7 1.29999 13.4 0.899991 12.9C0.399991 12 0.599991 11 1.49999 10.5C1.79999 10.3 2.09999 10.2 2.49999 10.2L5.29999 10.1V10H2.49999C2.09999 10 1.79999 10.1 1.49999 10.3C0.999991 10.6 0.699991 11 0.599991 11.5C0.499991 12 0.599991 12.5 0.799991 12.9C0.899991 13 0.999991 13.1 1.09999 13.2L1.19999 13.3C1.29999 13.4 1.39999 13.4 1.39999 13.5C1.39999 13.5 1.49999 13.5 1.59999 13.6C1.69999 13.6 1.79999 13.7 1.89999 13.7C1.99999 13.7 1.99999 13.7 2.09999 13.7C2.19999 13.7 2.29999 13.7 2.39999 13.7L5.19999 13.6Z" fill="black"/>
<path d="M2.40001 10.2C2.10001 10.2 1.70001 10.3 1.40001 10.5C0.600007 11 0.400007 12 0.900007 12.8C1.20001 13.3 1.80001 13.6 2.40001 13.6H2.50001L5.20001 13.5V13.6C5.20001 13.6 5.30001 13.6 5.30001 13.5C5.30001 13.5 5.30001 13.4 5.20001 13.4L2.40001 13.5H2.30001C1.70001 13.5 1.20001 13.2 0.900007 12.7C0.700007 12.3 0.600007 11.9 0.700007 11.5C0.800007 11.1 1.10001 10.7 1.40001 10.5C1.80001 10.4 2.10001 10.3 2.40001 10.2H5.20001V10.1H5.10001V10.2H2.40001Z" fill="black"/>
</svg>
